<mxfile host="app.diagrams.net" agent="Mozilla/5.0 (Windows NT 10.0; Win64; x64; rv:133.0) Gecko/20100101 Firefox/133.0" version="24.7.10">
  <diagram name="第 1 页" id="Ktr0cqRiYCXs8xc8x25B">
    <mxGraphModel dx="1941" dy="723" grid="1" gridSize="10" guides="1" tooltips="1" connect="1" arrows="1" fold="1" page="1" pageScale="1" pageWidth="827" pageHeight="1169" math="0" shadow="0">
      <root>
        <mxCell id="0" />
        <mxCell id="1" parent="0" />
        <mxCell id="S159WMLWpuJj3RLx8x_k-57" value="" style="rounded=0;whiteSpace=wrap;html=1;fillStyle=auto;dashed=1;strokeWidth=3;fillColor=none;" vertex="1" parent="1">
          <mxGeometry x="80" y="20" width="670" height="270" as="geometry" />
        </mxCell>
        <mxCell id="S159WMLWpuJj3RLx8x_k-38" style="edgeStyle=orthogonalEdgeStyle;rounded=0;orthogonalLoop=1;jettySize=auto;html=1;entryX=0;entryY=0.5;entryDx=0;entryDy=0;" edge="1" parent="1" source="S159WMLWpuJj3RLx8x_k-1" target="S159WMLWpuJj3RLx8x_k-8">
          <mxGeometry relative="1" as="geometry" />
        </mxCell>
        <mxCell id="S159WMLWpuJj3RLx8x_k-1" value="Reset" style="shape=parallelogram;perimeter=parallelogramPerimeter;whiteSpace=wrap;html=1;fixedSize=1;rotation=0;" vertex="1" parent="1">
          <mxGeometry x="-70" y="160" width="120" height="60" as="geometry" />
        </mxCell>
        <mxCell id="S159WMLWpuJj3RLx8x_k-7" style="edgeStyle=orthogonalEdgeStyle;rounded=0;orthogonalLoop=1;jettySize=auto;html=1;entryX=0;entryY=0.5;entryDx=0;entryDy=0;" edge="1" parent="1" source="S159WMLWpuJj3RLx8x_k-2" target="S159WMLWpuJj3RLx8x_k-10">
          <mxGeometry relative="1" as="geometry">
            <mxPoint x="120" y="90" as="targetPoint" />
          </mxGeometry>
        </mxCell>
        <mxCell id="S159WMLWpuJj3RLx8x_k-2" value="System Clock" style="shape=parallelogram;perimeter=parallelogramPerimeter;whiteSpace=wrap;html=1;fixedSize=1;rotation=0;" vertex="1" parent="1">
          <mxGeometry x="-60" y="60" width="120" height="60" as="geometry" />
        </mxCell>
        <mxCell id="S159WMLWpuJj3RLx8x_k-39" style="edgeStyle=orthogonalEdgeStyle;rounded=0;orthogonalLoop=1;jettySize=auto;html=1;entryX=0;entryY=0.5;entryDx=0;entryDy=0;" edge="1" parent="1" source="S159WMLWpuJj3RLx8x_k-9" target="S159WMLWpuJj3RLx8x_k-34">
          <mxGeometry relative="1" as="geometry" />
        </mxCell>
        <mxCell id="S159WMLWpuJj3RLx8x_k-9" value="&lt;div&gt;Shift to&amp;nbsp;&lt;/div&gt;&lt;div&gt;next State&lt;/div&gt;" style="shape=process;whiteSpace=wrap;html=1;backgroundOutline=1;rotation=0;" vertex="1" parent="1">
          <mxGeometry x="294" y="60" width="120" height="60" as="geometry" />
        </mxCell>
        <mxCell id="S159WMLWpuJj3RLx8x_k-15" style="edgeStyle=orthogonalEdgeStyle;rounded=0;orthogonalLoop=1;jettySize=auto;html=1;exitX=1;exitY=0.5;exitDx=0;exitDy=0;entryX=0;entryY=0.5;entryDx=0;entryDy=0;" edge="1" parent="1" source="S159WMLWpuJj3RLx8x_k-10" target="S159WMLWpuJj3RLx8x_k-9">
          <mxGeometry relative="1" as="geometry" />
        </mxCell>
        <mxCell id="S159WMLWpuJj3RLx8x_k-31" value="No" style="edgeLabel;html=1;align=center;verticalAlign=middle;resizable=0;points=[];" vertex="1" connectable="0" parent="S159WMLWpuJj3RLx8x_k-15">
          <mxGeometry x="-0.3" y="4" relative="1" as="geometry">
            <mxPoint as="offset" />
          </mxGeometry>
        </mxCell>
        <mxCell id="S159WMLWpuJj3RLx8x_k-43" style="edgeStyle=orthogonalEdgeStyle;rounded=0;orthogonalLoop=1;jettySize=auto;html=1;entryX=0;entryY=0.25;entryDx=0;entryDy=0;exitX=0.5;exitY=1;exitDx=0;exitDy=0;" edge="1" parent="1" source="S159WMLWpuJj3RLx8x_k-10" target="S159WMLWpuJj3RLx8x_k-8">
          <mxGeometry relative="1" as="geometry" />
        </mxCell>
        <mxCell id="S159WMLWpuJj3RLx8x_k-44" value="YES" style="edgeLabel;html=1;align=center;verticalAlign=middle;resizable=0;points=[];" vertex="1" connectable="0" parent="S159WMLWpuJj3RLx8x_k-43">
          <mxGeometry x="-0.6691" relative="1" as="geometry">
            <mxPoint y="-13" as="offset" />
          </mxGeometry>
        </mxCell>
        <mxCell id="S159WMLWpuJj3RLx8x_k-10" value="Is counter = 1" style="rhombus;whiteSpace=wrap;html=1;rotation=0;" vertex="1" parent="1">
          <mxGeometry x="130" y="60" width="120" height="60" as="geometry" />
        </mxCell>
        <mxCell id="S159WMLWpuJj3RLx8x_k-8" value="&lt;div&gt;Reset counter&lt;/div&gt;&lt;div&gt;to 25M&lt;br&gt;&lt;/div&gt;" style="shape=process;whiteSpace=wrap;html=1;backgroundOutline=1;rotation=0;" vertex="1" parent="1">
          <mxGeometry x="294" y="160" width="120" height="60" as="geometry" />
        </mxCell>
        <mxCell id="S159WMLWpuJj3RLx8x_k-61" style="edgeStyle=orthogonalEdgeStyle;rounded=0;orthogonalLoop=1;jettySize=auto;html=1;entryX=0;entryY=0.5;entryDx=0;entryDy=0;" edge="1" parent="1" source="S159WMLWpuJj3RLx8x_k-33" target="S159WMLWpuJj3RLx8x_k-59">
          <mxGeometry relative="1" as="geometry">
            <Array as="points">
              <mxPoint x="720" y="220" />
              <mxPoint x="720" y="140" />
            </Array>
          </mxGeometry>
        </mxCell>
        <mxCell id="S159WMLWpuJj3RLx8x_k-33" value="Output = 1" style="shape=parallelogram;perimeter=parallelogramPerimeter;whiteSpace=wrap;html=1;fixedSize=1;rotation=0;size=-10;" vertex="1" parent="1">
          <mxGeometry x="570" y="190" width="120" height="60" as="geometry" />
        </mxCell>
        <mxCell id="S159WMLWpuJj3RLx8x_k-60" style="edgeStyle=orthogonalEdgeStyle;rounded=0;orthogonalLoop=1;jettySize=auto;html=1;" edge="1" parent="1" source="S159WMLWpuJj3RLx8x_k-34" target="S159WMLWpuJj3RLx8x_k-59">
          <mxGeometry relative="1" as="geometry">
            <Array as="points">
              <mxPoint x="720" y="90" />
              <mxPoint x="720" y="140" />
            </Array>
          </mxGeometry>
        </mxCell>
        <mxCell id="S159WMLWpuJj3RLx8x_k-34" value="Output = !Output" style="shape=parallelogram;perimeter=parallelogramPerimeter;whiteSpace=wrap;html=1;fixedSize=1;rotation=0;size=-10;" vertex="1" parent="1">
          <mxGeometry x="570" y="60" width="120" height="60" as="geometry" />
        </mxCell>
        <mxCell id="S159WMLWpuJj3RLx8x_k-41" value="And" style="strokeWidth=2;html=1;shape=mxgraph.flowchart.delay;whiteSpace=wrap;" vertex="1" parent="1">
          <mxGeometry x="480" y="140" width="50" height="40" as="geometry" />
        </mxCell>
        <mxCell id="S159WMLWpuJj3RLx8x_k-54" style="edgeStyle=orthogonalEdgeStyle;rounded=0;orthogonalLoop=1;jettySize=auto;html=1;entryX=0;entryY=0.5;entryDx=0;entryDy=0;" edge="1" parent="1" source="S159WMLWpuJj3RLx8x_k-45" target="S159WMLWpuJj3RLx8x_k-33">
          <mxGeometry relative="1" as="geometry" />
        </mxCell>
        <mxCell id="S159WMLWpuJj3RLx8x_k-45" value="And" style="strokeWidth=2;html=1;shape=mxgraph.flowchart.delay;whiteSpace=wrap;" vertex="1" parent="1">
          <mxGeometry x="480" y="200" width="50" height="40" as="geometry" />
        </mxCell>
        <mxCell id="S159WMLWpuJj3RLx8x_k-49" style="edgeStyle=orthogonalEdgeStyle;rounded=0;orthogonalLoop=1;jettySize=auto;html=1;" edge="1" parent="1">
          <mxGeometry relative="1" as="geometry">
            <mxPoint x="414" y="203" as="sourcePoint" />
            <mxPoint x="480" y="213" as="targetPoint" />
            <Array as="points">
              <mxPoint x="440" y="203" />
              <mxPoint x="440" y="213" />
              <mxPoint x="480" y="213" />
            </Array>
          </mxGeometry>
        </mxCell>
        <mxCell id="S159WMLWpuJj3RLx8x_k-50" style="edgeStyle=orthogonalEdgeStyle;rounded=0;orthogonalLoop=1;jettySize=auto;html=1;entryX=0.02;entryY=0.985;entryDx=0;entryDy=0;entryPerimeter=0;" edge="1" parent="1">
          <mxGeometry relative="1" as="geometry">
            <mxPoint x="412.6" y="180" as="sourcePoint" />
            <mxPoint x="480.0000000000001" y="169.39999999999998" as="targetPoint" />
            <Array as="points">
              <mxPoint x="438.6" y="180" />
              <mxPoint x="438.6" y="169" />
            </Array>
          </mxGeometry>
        </mxCell>
        <mxCell id="S159WMLWpuJj3RLx8x_k-51" style="edgeStyle=orthogonalEdgeStyle;rounded=0;orthogonalLoop=1;jettySize=auto;html=1;entryX=0.02;entryY=0.015;entryDx=0;entryDy=0;entryPerimeter=0;exitX=1;exitY=0.75;exitDx=0;exitDy=0;" edge="1" parent="1" source="S159WMLWpuJj3RLx8x_k-2">
          <mxGeometry relative="1" as="geometry">
            <mxPoint x="78.6" y="100" as="sourcePoint" />
            <mxPoint x="480.0000000000001" y="150.60000000000002" as="targetPoint" />
            <Array as="points">
              <mxPoint x="46" y="100" />
              <mxPoint x="109" y="100" />
              <mxPoint x="109" y="151" />
            </Array>
          </mxGeometry>
        </mxCell>
        <mxCell id="S159WMLWpuJj3RLx8x_k-52" style="edgeStyle=orthogonalEdgeStyle;rounded=0;orthogonalLoop=1;jettySize=auto;html=1;" edge="1" parent="1" source="S159WMLWpuJj3RLx8x_k-1">
          <mxGeometry relative="1" as="geometry">
            <mxPoint x="480" y="230" as="targetPoint" />
            <Array as="points">
              <mxPoint x="110" y="190" />
              <mxPoint x="110" y="230" />
            </Array>
          </mxGeometry>
        </mxCell>
        <mxCell id="S159WMLWpuJj3RLx8x_k-53" style="edgeStyle=orthogonalEdgeStyle;rounded=0;orthogonalLoop=1;jettySize=auto;html=1;entryX=0.5;entryY=1;entryDx=0;entryDy=0;" edge="1" parent="1" source="S159WMLWpuJj3RLx8x_k-41" target="S159WMLWpuJj3RLx8x_k-34">
          <mxGeometry relative="1" as="geometry" />
        </mxCell>
        <mxCell id="S159WMLWpuJj3RLx8x_k-59" value="&lt;div&gt;Out&lt;/div&gt;" style="shape=parallelogram;perimeter=parallelogramPerimeter;whiteSpace=wrap;html=1;fixedSize=1;" vertex="1" parent="1">
          <mxGeometry x="770" y="110" width="120" height="60" as="geometry" />
        </mxCell>
        <mxCell id="S159WMLWpuJj3RLx8x_k-62" value="Counter" style="text;html=1;align=center;verticalAlign=middle;whiteSpace=wrap;rounded=0;fontSize=20;" vertex="1" parent="1">
          <mxGeometry x="90" y="256" width="60" height="30" as="geometry" />
        </mxCell>
      </root>
    </mxGraphModel>
  </diagram>
</mxfile>
